<?xml version="1.0" encoding="UTF-8"?>
<svg version="1.1" xmlns="http://www.w3.org/2000/svg" width="271" height="50">
<path d="M0 0 C1.65 0 3.3 0 5 0 C5.33 1.98 5.66 3.96 6 6 C6.70125 5.01 7.4025 4.02 8.125 3 C10.32959535 0.30900395 10.64418661 0.04028076 14.3125 -0.375 C15.199375 -0.25125 16.08625 -0.1275 17 0 C15.97953467 3.061396 15.18909411 4.82171126 12.8125 7.0625 C10.77939718 8.79362962 10.77939718 8.79362962 11 10.9375 C12.63346981 14.30653148 14.60328016 17.30164008 18 19 C18.23783203 18.19949219 18.23783203 18.19949219 18.48046875 17.3828125 C20.40053915 11.25131697 23.00234357 5.67540486 26 0 C27.98 0 29.96 0 32 0 C32.49371094 1.21558594 32.98742187 2.43117188 33.49609375 3.68359375 C34.14309709 5.2682831 34.7902397 6.85291559 35.4375 8.4375 C35.76298828 9.23994141 36.08847656 10.04238281 36.42382812 10.86914062 C36.89272461 12.01479492 36.89272461 12.01479492 37.37109375 13.18359375 C37.65911865 13.89056396 37.94714355 14.59753418 38.24389648 15.32592773 C38.88053845 16.99832767 38.88053845 16.99832767 40 18 C40.49371094 16.78441406 40.98742187 15.56882812 41.49609375 14.31640625 C42.14309709 12.7317169 42.7902397 11.14708441 43.4375 9.5625 C43.76298828 8.76005859 44.08847656 7.95761719 44.42382812 7.13085938 C44.73642578 6.36708984 45.04902344 5.60332031 45.37109375 4.81640625 C45.65911865 4.10943604 45.94714355 3.40246582 46.24389648 2.67407227 C47 1 47 1 48 0 C49.99958364 -0.04080783 52.00045254 -0.04254356 54 0 C55.34554945 2.91118213 56.67424529 5.82975653 58 8.75 C58.3815625 9.575 58.763125 10.4 59.15625 11.25 C59.69765625 12.44882812 59.69765625 12.44882812 60.25 13.671875 C60.58515625 14.4050293 60.9203125 15.13818359 61.265625 15.89355469 C62 18 62 18 62 22 C59.625 22.1875 59.625 22.1875 57 22 C56.34 21.01 55.68 20.02 55 19 C52.80545319 18.42006301 52.80545319 18.42006301 50.375 18.3125 C49.55773437 18.24675781 48.74046875 18.18101563 47.8984375 18.11328125 C47.27195313 18.07589844 46.64546875 18.03851562 46 18 C45.67 19.32 45.34 20.64 45 22 C43.37581255 22.08090971 41.75048255 22.13914995 40.125 22.1875 C39.22007812 22.22230469 38.31515625 22.25710937 37.3828125 22.29296875 C36.20332031 22.14794922 36.20332031 22.14794922 35 22 C34.34 21.01 33.68 20.02 33 19 C30.79274927 18.63637182 30.79274927 18.63637182 28.375 18.8125 C27.55773437 18.83957031 26.74046875 18.86664062 25.8984375 18.89453125 C24.95871094 18.94673828 24.95871094 18.94673828 24 19 C23.67 19.99 23.34 20.98 23 22 C13.42331839 22.92017937 13.42331839 22.92017937 9.93359375 20.6640625 C8.3125 19 8.3125 19 6 16 C5.67 17.98 5.34 19.96 5 22 C3.35 22 1.7 22 0 22 C0 14.74 0 7.48 0 0 Z M28 7 C27.34 8.98 26.68 10.96 26 13 C27.65 13 29.3 13 31 13 C30.34 11.02 29.68 9.04 29 7 C28.67 7 28.34 7 28 7 Z M50 7 C49.34 8.98 48.68 10.96 48 13 C49.65 13 51.3 13 53 13 C52.34 11.02 51.68 9.04 51 7 C50.67 7 50.34 7 50 7 Z " fill="#203B71" transform="translate(145,10)"/>
<path d="M0 0 C0.66 0.33 1.32 0.66 2 1 C1.649375 1.94875 1.29875 2.8975 0.9375 3.875 C-0.97905276 10.70013393 0.14176045 17.99998587 3.56640625 24.171875 C6.77579884 28.26450642 11.29376214 31.6194353 16.5 32.3515625 C22.29798981 31.53622018 26.8475589 26.38883928 30.4375 22.0625 C34.33295908 14.42740021 34.13122845 8.31605782 33 0 C37.33935351 2.93199562 39.823726 5.89369425 41 11 C41.92472404 20.32324515 40.69781312 26.90997159 34.6875 34.25 C29.67579974 39.64801882 24.85920182 41.53830077 17.5859375 42.0625 C10.70886403 41.89628674 3.80465464 38.94772128 -1 34 C-6.21825137 26.93224181 -7.21714813 19.59679397 -6 11 C-4.62334984 6.90206464 -2.39314004 3.58971006 0 0 Z M19 33 C19 33.33 19 33.66 19 34 C22.3 33.67 25.6 33.34 29 33 C29 32.67 29 32.34 29 32 C25.50765756 31.90021879 22.40562852 32.22157062 19 33 Z " fill="#2184C7" transform="translate(6,6)"/>
<path d="M0 0 C5 0 5 0 6.51171875 1.49609375 C6.89972656 2.13675781 7.28773438 2.77742187 7.6875 3.4375 C9.34191577 6.247256 9.34191577 6.247256 12 8 C12.268125 7.4225 12.53625 6.845 12.8125 6.25 C14.06527536 3.87632037 15.13127765 1.93793429 17 0 C18.65 0 20.3 0 22 0 C22 7.26 22 14.52 22 22 C20.35 22 18.7 22 17 22 C16.67 18.37 16.34 14.74 16 11 C14.68 12.65 13.36 14.3 12 16 C8.83884224 14.63016497 8.0072908 14.0109362 6 11 C5.67 14.63 5.34 18.26 5 22 C3.35 22 1.7 22 0 22 C0 14.74 0 7.48 0 0 Z " fill="#2084C7" transform="translate(209,10)"/>
<path d="M0 0 C5 0 5 0 7.01953125 1.96875 C7.61121094 2.8040625 8.20289062 3.639375 8.8125 4.5 C9.41707031 5.3353125 10.02164063 6.170625 10.64453125 7.03125 C11.09183594 7.6809375 11.53914063 8.330625 12 9 C12.33 6.03 12.66 3.06 13 0 C14.98 0 16.96 0 19 0 C19 6.93 19 13.86 19 21 C17.35 21.33 15.7 21.66 14 22 C11.69 19.03 9.38 16.06 7 13 C6.855625 14.299375 6.71125 15.59875 6.5625 16.9375 C6.125 20.875 6.125 20.875 5 22 C3.35 22 1.7 22 0 22 C0 14.74 0 7.48 0 0 Z " fill="#203A72" transform="translate(114,10)"/>
<path d="M0 0 C1.98 0 3.96 0 6 0 C6 2.64 6 5.28 6 8 C8.31 8 10.62 8 13 8 C13 5.36 13 2.72 13 0 C14.98 0 16.96 0 19 0 C19 7.26 19 14.52 19 22 C17.35 22 15.7 22 14 22 C13 21 13 21 12.90234375 19.15234375 C12.95117188 16.07617188 12.95117188 16.07617188 13 13 C10.69 13 8.38 13 6 13 C6 15.97 6 18.94 6 22 C4.33388095 22.042721 2.66617115 22.04063832 1 22 C0 21 0 21 -0.11352539 18.95874023 C-0.10828857 18.08419189 -0.10305176 17.20964355 -0.09765625 16.30859375 C-0.09443359 15.36435547 -0.09121094 14.42011719 -0.08789062 13.44726562 C-0.07951172 12.45404297 -0.07113281 11.46082031 -0.0625 10.4375 C-0.05798828 9.44041016 -0.05347656 8.44332031 -0.04882812 7.41601562 C-0.03700007 4.94395151 -0.02051849 2.47200482 0 0 Z " fill="#203B72" transform="translate(73,10)"/>
<path d="M0 0 C5.28 0 10.56 0 16 0 C16 1.65 16 3.3 16 5 C12.7 5 9.4 5 6 5 C6 5.99 6 6.98 6 8 C9.3 8 12.6 8 16 8 C16 9.65 16 11.3 16 13 C12.7 13 9.4 13 6 13 C6 14.32 6 15.64 6 17 C9.63 17 13.26 17 17 17 C16.67 18.65 16.34 20.3 16 22 C13.52076199 22.02685095 11.0418116 22.04676547 8.5625 22.0625 C7.85544922 22.07087891 7.14839844 22.07925781 6.41992188 22.08789062 C4.61306441 22.09653588 2.80612397 22.05220011 1 22 C0 21 0 21 -0.11352539 18.95874023 C-0.10828857 18.08419189 -0.10305176 17.20964355 -0.09765625 16.30859375 C-0.09443359 15.36435547 -0.09121094 14.42011719 -0.08789062 13.44726562 C-0.07951172 12.45404297 -0.07113281 11.46082031 -0.0625 10.4375 C-0.05798828 9.44041016 -0.05347656 8.44332031 -0.04882812 7.41601562 C-0.03700023 4.94398513 -0.01906415 2.47198528 0 0 Z " fill="#203A71" transform="translate(95,10)"/>
<path d="M0 0 C5.28 0 10.56 0 16 0 C16 1.65 16 3.3 16 5 C12.37 5 8.74 5 5 5 C5 5.99 5 6.98 5 8 C8.3 8 11.6 8 15 8 C15 9.65 15 11.3 15 13 C11.7 13 8.4 13 5 13 C5 14.32 5 15.64 5 17 C8.63 17 12.26 17 16 17 C16 18.65 16 20.3 16 22 C10.72 22 5.44 22 0 22 C0 14.74 0 7.48 0 0 Z " fill="#2084C7" transform="translate(235,10)"/>
<path d="M0 0 C12.55242265 -0.41381613 12.55242265 -0.41381613 17 3 C18.34967646 6.79596504 18.1766365 8.53191329 16.75 12.3125 C15 15 15 15 12 16 C9.66700175 16.03954234 7.33291811 16.04401732 5 16 C5 17.98 5 19.96 5 22 C3.35 22 1.7 22 0 22 C0 14.74 0 7.48 0 0 Z M5 5 C5 6.98 5 8.96 5 11 C8.465 10.505 8.465 10.505 12 10 C12 8.68 12 7.36 12 6 C9.69 5.67 7.38 5.34 5 5 Z " fill="#203B71" transform="translate(54,10)"/>
<path d="M0 0 C2.5625 2 2.5625 2 4 4 C2.68 4.99 1.36 5.98 0 7 C-0.33 6.67 -0.66 6.34 -1 6 C-3.33944736 6.28730055 -5.6739143 6.61936779 -8 7 C-8.16677282 10.41656024 -8.16677282 10.41656024 -8 14 C-7.34 14.66 -6.68 15.32 -6 16 C-4.0068433 16.02375926 -4.0068433 16.02375926 -1.875 15.625 C-0.59625 15.41875 0.6825 15.2125 2 15 C2.66 16.32 3.32 17.64 4 19 C1.37928071 21.62071929 -0.12603093 22.01626206 -3.875 22.5 C-8.64239584 22.33960164 -10.73679498 20.34279539 -14 17 C-15.59561887 13.80876226 -15.3799142 10.47254909 -15 7 C-11.83538863 0.06799415 -7.12038312 -1.10533023 0 0 Z " fill="#2084C7" transform="translate(267,10)"/>
<path d="M0 0 C0.66 0 1.32 0 2 0 C2.33 0.99 2.66 1.98 3 3 C3.45375 2.505 3.9075 2.01 4.375 1.5 C6 0 6 0 8 0 C7.34 1.98 6.68 3.96 6 6 C6.99 6.99 7.98 7.98 9 9 C9.12375 8.2575 9.2475 7.515 9.375 6.75 C9.95486701 4.19858515 10.73708739 2.2732427 12 0 C12.66 0 13.32 0 14 0 C15.32 2.64 16.64 5.28 18 8 C19.32 5.36 20.64 2.72 22 0 C24.84532475 2.84532475 25.87823182 4.26077274 27 8 C26.67 8.99 26.34 9.98 26 11 C25.67 10.01 25.34 9.02 25 8 C23.35 8 21.7 8 20 8 C19.67 8.99 19.34 9.98 19 11 C17.68 10.67 16.36 10.34 15 10 C15 9.34 15 8.68 15 8 C13.02463255 8.34786708 13.02463255 8.34786708 11 9 C10.67 9.66 10.34 10.32 10 11 C6.31245243 10.50168276 4.39509338 9.89932357 2 7 C2 8.32 2 9.64 2 11 C1.34 11 0.68 11 0 11 C0 7.37 0 3.74 0 0 Z M22 3 C21.67 4.32 21.34 5.64 21 7 C21.99 6.67 22.98 6.34 24 6 C23.34 5.01 22.68 4.02 22 3 Z M12 4 C11.67 4.99 11.34 5.98 11 7 C11.99 7 12.98 7 14 7 C13.67 6.01 13.34 5.02 13 4 C12.67 4 12.34 4 12 4 Z " fill="#203B71" transform="translate(244,37)"/>
<path d="M0 0 C3.33261628 1.80487108 6.08082718 3.84922961 7.83203125 7.2421875 C7.50203125 8.2321875 7.17203125 9.2221875 6.83203125 10.2421875 C6.13078125 9.6234375 5.42953125 9.0046875 4.70703125 8.3671875 C-0.34369942 4.63403874 -4.93950958 3.69583143 -11.16796875 4.2421875 C-16.03053562 5.94835132 -19.99717537 8.29211413 -24.16796875 11.2421875 C-22.5946078 6.23603903 -19.83279785 2.87290381 -15.3359375 0.12109375 C-10.62361667 -1.78930659 -4.77866384 -1.67037979 0 0 Z " fill="#F16E26" transform="translate(31.16796875,0.7578125)"/>
<path d="M0 0 C1.65 0 3.3 0 5 0 C5 7.26 5 14.52 5 22 C3.35 22 1.7 22 0 22 C0 14.74 0 7.48 0 0 Z " fill="#203A72" transform="translate(136,10)"/>
<path d="M0 0 C3.375 0.3125 3.375 0.3125 7 1 C9 4 9 4 8.75 6.5625 C8 9 8 9 6 11 C2.375 11.125 2.375 11.125 -1 11 C-2.0257259 6.58937864 -2.03684712 4.07369424 0 0 Z M1 2 C1 4.31 1 6.62 1 9 C2.65 8.67 4.3 8.34 6 8 C6.6814823 6.10820797 6.6814823 6.10820797 7 4 C6.34 3.34 5.68 2.68 5 2 C3.68 2 2.36 2 1 2 Z " fill="#203A71" transform="translate(136,37)"/>
<path d="M0 0 C1.98 0 3.96 0 6 0 C8.09350689 3.4019487 8.17942163 6.05272412 8 10 C5.29120665 11.35439668 2.99066732 11.06501451 0 11 C0 7.37 0 3.74 0 0 Z M2 2 C2 2.99 2 3.98 2 5 C3.32 4.67 4.64 4.34 6 4 C5.67 3.34 5.34 2.68 5 2 C4.01 2 3.02 2 2 2 Z M2 6 C2 6.99 2 7.98 2 9 C3.32 9 4.64 9 6 9 C5.67 8.01 5.34 7.02 5 6 C4.01 6 3.02 6 2 6 Z " fill="#203B71" transform="translate(54,37)"/>
<path d="M0 0 C2.875 0.75 2.875 0.75 3.875 1.75 C3.91592937 4.08297433 3.91741723 6.41705225 3.875 8.75 C1.895 9.74 1.895 9.74 -0.125 10.75 C-0.125 11.41 -0.125 12.07 -0.125 12.75 C-2.73613596 11.44443202 -4.25472515 9.99432982 -6.125 7.75 C-6.62540136 4.81907774 -6.53061164 3.4260194 -5 0.875 C-3.125 -0.25 -3.125 -0.25 0 0 Z M-2.125 1.75 C-2.785 2.41 -3.445 3.07 -4.125 3.75 C-3.80458603 6.35280568 -3.80458603 6.35280568 -3.125 8.75 C-1.475 8.42 0.175 8.09 1.875 7.75 C2.205 6.76 2.535 5.77 2.875 4.75 C2.215 3.76 1.555 2.77 0.875 1.75 C-0.115 1.75 -1.105 1.75 -2.125 1.75 Z " fill="#203B71" transform="translate(180.125,37.25)"/>
<path d="M0 0 C0.66 0 1.32 0 2 0 C3.625 2 3.625 2 5 4 C5.33 2.68 5.66 1.36 6 0 C6.66 0 7.32 0 8 0 C8 3.63 8 7.26 8 11 C7.34 11 6.68 11 6 11 C4.375 9 4.375 9 3 7 C2.67 8.32 2.34 9.64 2 11 C1.34 11 0.68 11 0 11 C0 7.37 0 3.74 0 0 Z " fill="#203B71" transform="translate(229,37)"/>
<path d="M0 0 C2.0625 0.1875 2.0625 0.1875 4 1 C4.33 1.99 4.66 2.98 5 4 C3.35 4 1.7 4 0 4 C0 4.99 0 5.98 0 7 C1.32 7.33 2.64 7.66 4 8 C2.68 8 1.36 8 0 8 C0 8.99 0 9.98 0 11 C1.65 11 3.3 11 5 11 C5 11.66 5 12.32 5 13 C4.01 13 3.02 13 2 13 C2 13.66 2 14.32 2 15 C0.68 14.34 -0.64 13.68 -2 13 C-2.05391993 11.20866022 -2.09275571 9.41686101 -2.125 7.625 C-2.14820312 6.62726562 -2.17140625 5.62953125 -2.1953125 4.6015625 C-2 2 -2 2 0 0 Z " fill="#203A71" transform="translate(114,35)"/>
<path d="M0 0 C2.0625 0.1875 2.0625 0.1875 4 1 C4.33 1.99 4.66 2.98 5 4 C3.35 4 1.7 4 0 4 C0 4.99 0 5.98 0 7 C1.32 7.33 2.64 7.66 4 8 C2.68 8 1.36 8 0 8 C0 8.99 0 9.98 0 11 C1.65 11 3.3 11 5 11 C5 11.66 5 12.32 5 13 C4.01 13 3.02 13 2 13 C2 13.66 2 14.32 2 15 C0.68 14.34 -0.64 13.68 -2 13 C-2.05391993 11.20866022 -2.09275571 9.41686101 -2.125 7.625 C-2.14820313 6.62726562 -2.17140625 5.62953125 -2.1953125 4.6015625 C-2 2 -2 2 0 0 Z " fill="#203A71" transform="translate(66,35)"/>
<path d="M0 0 C1.65 1.65 3.3 3.3 5 5 C5.33 3.35 5.66 1.7 6 0 C6.66 0 7.32 0 8 0 C8 3.63 8 7.26 8 11 C7.34 11 6.68 11 6 11 C4.375 9 4.375 9 3 7 C2.67 8.32 2.34 9.64 2 11 C1.34 11 0.68 11 0 11 C0 7.37 0 3.74 0 0 Z " fill="#203B72" transform="translate(121,37)"/>
<path d="M0 0 C1.65 1.65 3.3 3.3 5 5 C5.33 3.35 5.66 1.7 6 0 C6.66 0 7.32 0 8 0 C8 3.63 8 7.26 8 11 C7.34 11 6.68 11 6 11 C4.375 9 4.375 9 3 7 C2.67 8.32 2.34 9.64 2 11 C1.34 11 0.68 11 0 11 C0 7.37 0 3.74 0 0 Z " fill="#203B72" transform="translate(73,37)"/>
<path d="M0 0 C2.31 0 4.62 0 7 0 C7 0.66 7 1.32 7 2 C5.35 2 3.7 2 2 2 C2 2.99 2 3.98 2 5 C3.32 5.33 4.64 5.66 6 6 C4.68 6 3.36 6 2 6 C2 6.99 2 7.98 2 9 C3.65 9 5.3 9 7 9 C7 9.66 7 10.32 7 11 C4.69 11 2.38 11 0 11 C0 7.37 0 3.74 0 0 Z " fill="#203A71" transform="translate(220,37)"/>
<path d="M0 0 C0.66 0 1.32 0 2 0 C2.67119549 1.4562545 3.33681807 2.91507867 4 4.375 C4.556875 5.59316406 4.556875 5.59316406 5.125 6.8359375 C6 9 6 9 6 11 C5.01 10.67 4.02 10.34 3 10 C3 9.34 3 8.68 3 8 C1.02463255 8.34786708 1.02463255 8.34786708 -1 9 C-1.33 9.66 -1.66 10.32 -2 11 C-2.66 11 -3.32 11 -4 11 C-3.52269162 9.5410574 -3.04308958 8.08286504 -2.5625 6.625 C-2.29566406 5.81289063 -2.02882812 5.00078125 -1.75390625 4.1640625 C-1 2 -1 2 0 0 Z M0 4 C-0.33 4.99 -0.66 5.98 -1 7 C-0.01 7 0.98 7 2 7 C1.67 6.01 1.34 5.02 1 4 C0.67 4 0.34 4 0 4 Z " fill="#203B71" transform="translate(149,37)"/>
<path d="M0 0 C3.125 0.375 3.125 0.375 6 1 C6 1.66 6 2.32 6 3 C4.35 3 2.7 3 1 3 C0.67 4.32 0.34 5.64 0 7 C2.07553648 7.5534764 3.84365964 8 6 8 C5.67 8.99 5.34 9.98 5 11 C2.6875 11.25 2.6875 11.25 0 11 C-1.875 9.3125 -1.875 9.3125 -3 7 C-2.75925978 3.62963689 -2.41201979 2.41201979 0 0 Z " fill="#203B70" transform="translate(188,37)"/>
<path d="M0 0 C0.66 0 1.32 0 2 0 C2.99 1.98 3.98 3.96 5 6 C5.99 4.02 6.98 2.04 8 0 C9.13643966 3.40931897 8.86747764 4.00335456 7.5625 7.1875 C7.27503906 7.90292969 6.98757812 8.61835937 6.69140625 9.35546875 C6.46324219 9.89816406 6.23507813 10.44085938 6 11 C5.01 10.67 4.02 10.34 3 10 C1.25327015 6.5065403 0 3.93154432 0 0 Z " fill="#203B71" transform="translate(97,37)"/>
<path d="M0 0 C0.66 0 1.32 0 2 0 C2 1.65 2 3.3 2 5 C3.65 5 5.3 5 7 5 C7 3.35 7 1.7 7 0 C7.33 0 7.66 0 8 0 C8 3.63 8 7.26 8 11 C7.67 11 7.34 11 7 11 C7 9.35 7 7.7 7 6 C5.35 6 3.7 6 2 6 C2 7.65 2 9.3 2 11 C1.34 11 0.68 11 0 11 C0 7.37 0 3.74 0 0 Z " fill="#203A71" transform="translate(209,37)"/>
<path d="M0 0 C2.31 0.33 4.62 0.66 7 1 C7 2.98 7 4.96 7 7 C5.02 7.33 3.04 7.66 1 8 C0.67 8.99 0.34 9.98 0 11 C0 7.37 0 3.74 0 0 Z M1 2 C1 3.32 1 4.64 1 6 C2.65 5.67 4.3 5.34 6 5 C5.67 4.01 5.34 3.02 5 2 C3.68 2 2.36 2 1 2 Z " fill="#203B71" transform="translate(200,37)"/>
<path d="M0 0 C0.66 0 1.32 0 2 0 C2 1.65 2 3.3 2 5 C3.65 5 5.3 5 7 5 C7 3.35 7 1.7 7 0 C7.33 0 7.66 0 8 0 C8 3.63 8 7.26 8 11 C7.67 11 7.34 11 7 11 C7 9.35 7 7.7 7 6 C5.35 6 3.7 6 2 6 C2 7.65 2 9.3 2 11 C1.34 11 0.68 11 0 11 C0 7.37 0 3.74 0 0 Z " fill="#203A71" transform="translate(164,37)"/>
<path d="M0 0 C0.33 0 0.66 0 1 0 C1 1.65 1 3.3 1 5 C2.65 5 4.3 5 6 5 C6 3.35 6 1.7 6 0 C6.66 0 7.32 0 8 0 C8 3.63 8 7.26 8 11 C7.34 11 6.68 11 6 11 C6 9.35 6 7.7 6 6 C4.35 6 2.7 6 1 6 C1 7.65 1 9.3 1 11 C0.67 11 0.34 11 0 11 C0 7.37 0 3.74 0 0 Z " fill="#203A71" transform="translate(84,37)"/>
<path d="M0 0 C0.66 0 1.32 0 2 0 C2 3.63 2 7.26 2 11 C1.34 11 0.68 11 0 11 C0 7.37 0 3.74 0 0 Z " fill="#203A72" transform="translate(240,37)"/>
<path d="M0 0 C0.66 0 1.32 0 2 0 C2 3.63 2 7.26 2 11 C1.34 11 0.68 11 0 11 C0 7.37 0 3.74 0 0 Z " fill="#203A72" transform="translate(156,37)"/>
<path d="M0 0 C0.33 0 0.66 0 1 0 C1 3.63 1 7.26 1 11 C0.34 11 -0.32 11 -1 11 C-1.02688151 9.35425434 -1.04634123 7.70838587 -1.0625 6.0625 C-1.07410156 5.14597656 -1.08570312 4.22945312 -1.09765625 3.28515625 C-1 1 -1 1 0 0 Z " fill="#203970" transform="translate(108,37)"/>
<path d="M0 0 C0.66 0.66 1.32 1.32 2 2 C1.34 2 0.68 2 0 2 C0 1.34 0 0.68 0 0 Z " fill="#203C71" transform="translate(149,48)"/>
</svg>
